<?xml version="1.0" encoding="iso-8859-1"?>
<!-- Generator: Adobe Illustrator 21.1.0, SVG Export Plug-In . SVG Version: 6.00 Build 0)  -->
<svg version="1.1" id="Layer_1" xmlns="http://www.w3.org/2000/svg" xmlns:xlink="http://www.w3.org/1999/xlink" x="0px" y="0px"
	 viewBox="0 0 260 60" style="enable-background:new 0 0 260 60;" xml:space="preserve">
<g>
	<polygon points="255.564,2.555 256.182,5.341 256.595,5.341 255.976,2.555 256.699,2.349 256.595,1.936 254.738,2.349 
		254.841,2.762 	"/>
	<polygon points="257.936,5.032 257.421,2.349 257.421,2.349 258.555,4.825 258.968,4.825 258.968,2.04 258.968,1.936 
		259.587,4.619 260,4.619 259.278,1.318 258.659,1.524 258.659,4 258.555,4 257.627,1.73 256.905,1.833 257.524,5.135 	"/>
	<path d="M241.635,14.833c0.206,0,0.413,0,0.619,0c0.619-0.103,1.445-0.413,2.27-0.928c0.309-0.103,0.722-0.206,1.032-0.413
		c0.413-0.206,0.826-0.309,1.238-0.413c0.309,0.826,0.516,1.857,0.825,2.992c0.722,1.548,1.135,3.405,1.548,5.055
		c0.206,0.825,0.413,1.548,0.619,2.373c0.309,0.928,0.722,1.341,1.341,1.857h0.103c0.206,0.103,0.413,0.103,0.619,0.103h0.103
		c0.309,0,0.516-0.309,0.619-0.619c0-0.206,0-0.516,0-0.826c-0.103-0.619-0.309-1.548-0.722-2.476
		c-0.516-3.405-1.135-5.055-1.651-6.603c-0.206-0.516-0.309-0.928-0.413-1.341v-0.103c0-0.309-0.103-0.619-0.206-0.825
		c-0.103-0.206-0.206-0.413-0.206-0.619c0-0.103,0-0.309,0.103-0.413c0.722-0.413,1.651-0.619,2.476-0.928
		c0.516-0.206,1.032-0.309,1.445-0.516c0.722-0.206,1.135-1.032,1.135-1.857c0.103-0.309,0.103-0.722,0.103-1.032
		c-0.103-0.722-0.516-1.032-1.135-0.928h-0.103c-1.135,0.309-2.373,0.826-3.405,1.238c-0.413,0.206-0.928,0.309-1.341,0.516
		l-0.206-0.206c-0.206-0.619-0.309-1.341-0.413-1.96c-0.206-1.238-0.413-2.579-1.032-3.611c-0.309-0.516-0.825-0.826-1.445-0.722
		l-0.309,0.103c-0.309,0.103-0.412,0.516-0.412,0.722c0,0.103,0,0.206,0,0.206l0,0l0,0c0.309,2.373,0.826,4.643,1.341,6.603
		l-0.206,0.206c-1.341,0.619-1.754,0.722-2.579,0.928h-0.103h-0.103c-0.309,0.206-0.619,0.309-0.928,0.309
		c-0.826,0.206-1.651,0.413-1.651,1.651c0,0.103,0,0.206,0,0.309C240.191,13.801,241.016,14.73,241.635,14.833z"/>
	<path d="M90.691,20.508c0.103,0.206,0.206,0.516,0.206,0.825c0,0.206,0,0.413,0,0.516v0.103v0.103
		c0.206,0.722,0.309,1.548,0.516,2.27c0.619,2.992,1.238,6.087,1.754,9.182c0.103,1.032,0.206,2.064,0.309,2.992
		c0.206,0.826,0.309,1.754,0.516,2.682c0.413,2.579,0.826,5.365,2.27,7.532l0.103,0.103h0.103c0.309,0,0.516,0.206,0.722,0.516
		l0.103,0.103c0.206,0.206,0.516,0.309,0.928,0.309c0.103,0,0.103,0,0.206,0c0.206,0,0.413-0.103,0.619-0.206
		c0.206-0.206,0.309-0.413,0.206-0.619c0,0,0-0.206-0.103-0.206c-0.206-0.516-0.413-0.928-0.516-1.445
		c-0.103-0.413-0.206-0.928-0.413-1.238c-0.516-2.476-0.928-4.643-1.238-6.603l-0.413-2.579c-0.516-4.024-1.341-7.945-2.064-11.865
		c-0.206-1.032-0.413-2.064-0.619-2.992c-0.206-0.928-1.341-1.651-2.373-1.445h-0.206h-0.103c-0.722,0.516-0.722,1.135-0.722,1.548
		C90.484,19.992,90.587,20.301,90.691,20.508z"/>
	<path d="M51.381,52.389h0.103c0.206,0,0.309,0,0.516,0c0.309,0,0.619,0,0.928-0.103c1.341-0.206,2.579-0.928,3.405-2.064
		c0.309-0.309,0.516-0.826,0.619-1.341l0.103-0.206c0.103-0.722,0.309-3.611-0.103-6.5c-0.206-1.135-0.413-2.27-0.826-3.199
		c-0.206-0.413-0.413-0.928-0.619-1.548c-0.103-0.413-0.206-0.826-0.413-1.341l-0.103-0.413c-0.309-0.516-1.032-0.722-1.548-0.826
		l0,0l0,0c-0.619,0.206-0.928,0.826-0.928,1.341v0.206V36.5c0.619,1.238,1.135,2.579,1.651,4.127
		c0.103,0.516,0.206,1.032,0.309,1.548c0.309,2.064,0.103,3.921-0.516,5.365c-0.516,0.516-1.135,1.032-1.857,1.135
		c-0.309,0-0.619,0-0.826-0.103c-2.27-1.857-2.992-5.262-3.611-8.357l-0.103-0.516v-0.103c-0.206-0.309-0.516-0.619-1.032-0.619
		c-0.103,0-0.206,0-0.309,0c-0.516,0.103-0.722,0.722-0.826,0.928l0,0l0,0c0,0.826,0.103,1.548,0.103,2.27
		C46.222,46.921,48.286,50.532,51.381,52.389z"/>
	<path d="M97.913,31.857c0.103,0.206,0.206,0.516,0.206,0.722c0,0.103,0,0.103,0,0.206v0.103v0.103
		c1.754,3.199,4.333,5.984,6.809,8.667l0.928,1.032c0.619,0.722,1.341,1.135,2.064,1.445c0.309,0.206,0.516,0.309,0.826,0.516
		c-0.103,1.548-0.103,3.095,0,4.643c0,1.857,0,3.818-0.103,5.778v0.103c0.103,0.826,0.722,1.445,1.445,1.754
		c0.206,0.103,0.309,0.103,0.413,0.103h0.103c0.309,0,0.516-0.309,0.619-0.619l0,0l0,0c0-0.413,0-0.722,0.103-1.032
		c0-0.309,0.103-0.619,0.103-0.928c0.206-1.651,0.206-3.301,0.103-4.952c0-0.928,0-1.857,0-2.889
		c0.103-2.167,0.206-4.333,0.413-6.397c0.309-3.095,0.516-6.397,0.413-9.699c0-0.413,0-0.928,0-1.445c0-0.825,0.103-1.651,0-2.373
		c-0.103-0.722-0.309-1.238-0.619-1.651l-0.103-0.103c-0.206-0.206-0.516-0.516-0.928-0.516c-0.103,0-0.103,0-0.103,0.103H110.5
		c-1.135,0.722-1.135,2.476-1.238,3.921c0,0.206,0,0.516,0,0.722c-0.413,1.857-0.413,3.921-0.309,5.984
		c0,1.445,0.103,2.992-0.103,4.436l-0.413,1.032h-0.103c-0.206,0-0.413-0.206-0.722-0.413c-0.103-0.103-0.206-0.206-0.309-0.206
		c-2.476-2.579-4.333-4.746-5.984-6.913c-0.309-0.413-0.516-0.826-0.722-1.341c-0.309-0.722-0.722-1.341-1.341-1.857l-0.103-0.103
		l-0.413,0.103c-0.309,0-0.619,0.103-0.826,0.413c-0.206,0.309-0.309,0.619-0.309,1.032C97.809,31.341,97.809,31.548,97.913,31.857z
		 M110.603,56.619L110.603,56.619L110.603,56.619L110.603,56.619z"/>
	<path d="M45.913,36.603c-0.103-0.722-0.516-1.032-1.135-0.928h-0.103c-1.135,0.309-2.27,0.826-3.405,1.238
		c-0.516,0.206-0.928,0.309-1.341,0.516l-0.206-0.206c-0.206-0.619-0.309-1.341-0.413-1.96c-0.206-1.238-0.413-2.579-1.032-3.611
		c-0.309-0.516-0.826-0.825-1.445-0.722l-0.309,0.103c-0.309,0.103-0.413,0.516-0.413,0.722c0,0.103,0,0.206,0,0.206l0,0l0,0
		c0.309,2.373,0.826,4.643,1.341,6.603l-0.206,0.206c-1.341,0.619-1.754,0.722-2.579,0.928h-0.103h-0.103
		c-0.309,0.206-0.619,0.309-0.928,0.309c-0.826,0.206-1.651,0.413-1.651,1.651c0,0.103,0,0.206,0,0.309
		c0.103,0.928,0.928,1.96,1.548,1.96c0.206,0,0.413,0,0.619,0c0.619-0.103,1.445-0.413,2.27-0.928
		c0.309-0.103,0.722-0.206,1.032-0.413c0.413-0.206,0.826-0.309,1.238-0.413c0.309,0.827,0.515,1.858,0.825,2.993
		c0.722,1.548,1.135,3.405,1.548,5.055c0.206,0.826,0.413,1.548,0.619,2.373c0.309,0.928,0.722,1.341,1.341,1.857h0.103
		c0.206,0.103,0.413,0.103,0.619,0.103h0.103c0.309,0,0.516-0.309,0.619-0.619c0-0.206,0-0.516,0-0.826
		c-0.103-0.619-0.309-1.548-0.722-2.476c-0.516-3.405-1.135-5.055-1.651-6.603c-0.206-0.516-0.309-0.928-0.413-1.341v-0.103
		c0-0.309-0.103-0.619-0.206-0.826c-0.103-0.207-0.206-0.413-0.206-0.62s0-0.309,0.103-0.413c0.722-0.413,1.651-0.619,2.476-0.928
		c0.516-0.206,1.032-0.309,1.445-0.516c0.722-0.206,1.135-1.032,1.135-1.857C46.016,37.222,46.016,36.913,45.913,36.603z"/>
	<path d="M34.151,54.246c-0.309-0.309-0.619-0.619-0.826-1.032c-1.445-2.786-2.064-4.23-2.167-4.333
		c-0.206-0.309-1.238-3.611-1.651-5.055l0.103-0.619l0,0c-0.309-1.032-0.825-1.238-1.238-1.238H28.27l-0.516-0.103
		c-1.548-0.928-2.889-1.341-4.024-1.238c-0.722,0.103-1.341,0.413-1.857,0.928c-1.96,1.96-2.786,5.262-2.27,8.77
		c0,0.103,0,0.309,0.103,0.413c0,0.103,0.103,0.206,0.103,0.413c0.619,2.992,2.27,5.159,4.333,5.572l0,0l0.413-0.103
		c2.064-0.309,3.301-2.476,4.333-4.436l0.31-0.516c1.032,1.857,2.167,3.818,3.508,5.365h0.103c0.103,0.103,0.206,0.206,0.413,0.206
		c0.309,0.206,0.722,0.516,1.032,0.516h0.103c0.309,0,0.516-0.206,0.619-0.516c0.206-0.413,0.206-0.826,0.206-1.135
		c0-0.206,0-0.516,0-0.722v-0.103v-0.103C34.873,54.968,34.46,54.659,34.151,54.246z M27.135,46.818
		c-0.103,2.476-1.135,4.952-2.786,6.191c-0.103,0.103-0.206,0.103-0.413,0.103s-0.309,0-0.516,0
		c-0.516-0.722-0.825-1.754-1.032-2.889c-0.206-1.238-0.103-2.579,0.103-3.714c0.309-1.238,0.722-2.889,1.857-3.199
		c0.722-0.103,1.341,0,2.064,0.309c0.309,0.619,0.516,1.445,0.619,2.064C27.135,46.095,27.135,46.508,27.135,46.818z"/>
	<path d="M16.611,47.127c-0.103-0.516-0.309-1.032-0.413-1.548c-0.413-1.754-1.032-3.405-1.651-5.159
		c-0.309-1.032-0.722-2.064-1.032-3.095l-0.206-0.516c-0.206-0.516-0.309-1.135-0.619-1.857c-0.103-0.619-0.413-0.928-0.826-0.928
		c-0.309,0-0.722,0.309-1.135,0.826v0.103c-0.103,0.309-0.206,1.238-0.103,1.754v0.206l3.095,9.389
		c0.413,1.341,0.928,2.992,1.135,4.54c0.206,1.135,0.206,2.064,0,2.889l0,0c-0.103,0-0.206,0-0.413-0.206h-0.103
		c-2.167-0.722-3.611-2.27-5.055-3.818c-0.619-0.722-1.341-1.341-1.96-1.96c-1.341-1.96-2.682-3.714-4.127-5.572l-0.722-0.928
		c-0.516-0.619-1.032-0.928-1.651-0.826c-0.103,0-0.309,0.103-0.413,0.103L0.31,40.626c-0.207,0.207-0.207,0.414-0.207,0.517
		s0,0.103-0.103,0.206v0.103l1.238,6.809c0.103,0.516,0.206,1.032,0.309,1.651c0.516,2.786,0.928,5.572,2.064,7.945
		c0.309,0.516,0.722,0.826,1.238,0.826c0,0,0.103,0,0.206,0c0.103,0,0.206,0,0.309-0.103c0.619-0.103,0.722-0.928,0.722-1.238l0,0
		l0,0c-0.619-2.064-0.928-3.508-1.341-5.572c-0.103-0.413-0.206-0.928-0.309-1.445c-0.001-0.412-0.103-0.825-0.103-1.341
		c0-0.309-0.103-0.516-0.103-0.826c0.619,0.722,1.238,1.445,1.96,2.27c1.96,2.27,3.921,4.643,6.5,6.087l0.103,0.103
		c0.928,0.516,1.96,1.135,3.199,1.135h0.206h0.413c0.103,0,0.206,0,0.309,0c0.516-0.103,0.826-0.413,0.928-0.928
		c0.309-1.341,0.309-2.786,0.103-4.333C17.643,50.532,17.127,48.881,16.611,47.127z"/>
	<path d="M83.984,21.436c0.103,0.206,0.206,0.516,0.206,0.825c0,0.206,0,0.413,0,0.516v0.103v0.103
		c0.206,0.722,0.309,1.548,0.516,2.27c0.619,2.992,1.238,6.087,1.754,9.182c0.103,0.928,0.206,1.857,0.309,2.992
		c0.206,0.826,0.309,1.754,0.516,2.682c0.413,2.579,0.826,5.365,2.27,7.532l0.103,0.103h0.103c0.309,0,0.516,0.206,0.722,0.516
		l0.103,0.103c0.206,0.206,0.516,0.309,0.928,0.309c0.103,0,0.103,0,0.206,0c0.206,0,0.413-0.103,0.619-0.206
		c0.206-0.206,0.309-0.413,0.206-0.619c0,0,0-0.206-0.103-0.206c-0.206-0.516-0.413-0.928-0.516-1.445
		c-0.103-0.413-0.206-0.928-0.413-1.238c-0.516-2.373-0.928-4.643-1.238-6.603l-0.309-2.579c-0.516-4.024-1.341-8.048-2.064-11.865
		c-0.206-1.032-0.413-1.96-0.619-2.992c-0.206-0.928-1.341-1.651-2.373-1.445h-0.103h-0.103c-0.722,0.516-0.722,1.135-0.722,1.548
		C83.881,20.921,83.984,21.23,83.984,21.436z"/>
	<path d="M227.706,26.492c1.032,1.651,2.476,1.96,3.508,1.96c0.206,0,0.516,0,0.722,0c0.309,0,0.619-0.103,0.928-0.206
		c2.064-0.722,4.54-1.548,6.706-2.889c0.516-0.413,0.825-0.825,1.238-1.341c0.103-0.206,0.309-0.309,0.413-0.516
		c0.619-0.309,1.135-1.238,1.032-1.857c0-0.309-0.206-0.413-0.516-0.413h-0.103c0,0-0.103,0-0.206,0.103
		c-1.445,0.413-2.786,0.928-4.127,1.445c-1.651,0.619-3.405,1.238-5.262,1.651l0,0c-0.206,0-0.309,0-0.516,0.103l-0.413,0.103
		c-0.516,0.103-0.928,0.103-1.238-0.413c1.445-3.095,3.095-6.191,5.468-8.357l0,0c0.206-0.309,0.516-0.516,0.928-0.619
		c0.516-0.309,1.032-0.516,1.341-1.341l0,0v-0.309c0-0.309,0-0.619-0.103-0.928c0-0.103,0-0.206-0.103-0.413
		c-0.516-0.928-1.135-1.032-1.651-1.032c-0.103,0-0.206,0-0.309,0c-0.826,0.103-1.548,0.619-1.857,0.826l-0.103,0.103
		c-2.373,2.476-5.262,5.984-6.603,10.524v0.103c0,0.516,0,1.135,0,1.651C226.881,24.841,227.191,25.667,227.706,26.492z"/>
	<path d="M59.841,46.405c0.103,0.516,0.206,1.032,0.309,1.651c0.309,1.857,0.722,3.921,2.579,4.54l0,0h0.103
		c0.619-0.103,0.722-0.928,0.722-1.341l0,0l0,0c-0.103-0.413-0.206-0.722-0.206-1.135c-0.309-1.445-0.722-2.992-0.928-4.54
		c-0.206-1.754-0.309-3.199-0.103-4.436c1.548-2.889,3.508-4.54,5.778-4.849l0.619-0.103c1.341-0.206,2.373-0.826,2.373-1.651l0,0
		l0,0c-0.103-0.619-0.413-0.826-0.722-0.928c-0.928-0.516-1.548-0.619-2.579-0.722h-0.103c-0.309,0-0.619,0-1.032,0.103
		c-2.167,0.309-4.23,1.651-6.191,4.23c-0.103,0.206-0.206,0.309-0.206,0.309c-0.103,0-0.206-0.309-0.309-0.413
		c-0.206-0.309-0.516-0.722-0.826-0.722c-0.206-0.103-0.309-0.103-0.516-0.103c-0.413,0.103-0.722,0.309-0.826,0.722v0.103
		c0,0.826,0,1.754,0.206,2.579C58.397,41.865,59.119,44.238,59.841,46.405z"/>
	<path d="M71.913,43.516c0,0.103,0,0.206,0.103,0.413c0.619,2.992,2.27,5.159,4.333,5.572l0,0l0.413-0.103
		c2.064-0.309,3.301-2.476,4.333-4.436c0.103-0.206,0.206-0.309,0.309-0.516c1.032,1.857,2.167,3.818,3.508,5.365h0.103
		c0.103,0.103,0.206,0.206,0.413,0.206c0.309,0.206,0.722,0.516,1.032,0.516h0.103c0.309,0,0.516-0.206,0.619-0.516
		c0.206-0.413,0.206-0.826,0.206-1.135c0-0.206,0-0.516,0-0.722v-0.103v-0.103c-0.206-0.516-0.619-0.928-1.032-1.238
		c-0.309-0.309-0.619-0.619-0.826-1.032c-1.445-2.786-2.064-4.23-2.167-4.333c-0.206-0.309-1.238-3.611-1.651-5.055l0.103-0.619
		v-0.103c-0.309-1.032-0.826-1.238-1.238-1.238h-0.103l-0.516-0.103c-1.548-0.928-2.889-1.341-4.024-1.238
		c-0.722,0.103-1.341,0.413-1.857,0.928c-1.96,1.96-2.786,5.262-2.27,8.77C71.913,43.309,71.913,43.413,71.913,43.516z
		 M74.699,39.182c0.309-1.238,0.722-2.889,1.857-3.199c0.722-0.103,1.341,0,2.064,0.309c0.309,0.619,0.516,1.445,0.619,2.064
		c0.103,0.413,0.103,0.826,0.103,1.135c-0.103,2.476-1.135,4.952-2.786,6.191c-0.103,0.103-0.206,0.103-0.413,0.103
		c-0.206,0-0.309,0-0.516,0c-0.516-0.722-0.826-1.754-1.032-2.889C74.389,41.659,74.492,40.318,74.699,39.182z"/>
	<path d="M150.326,38.873c0.103,0,0.103,0,0.206,0c0.103,0,0.103,0,0.206-0.103c0.516-0.103,0.928-0.619,0.826-1.135
		c0-0.103-0.103-0.309-0.103-0.413c-0.103-0.206-0.206-0.516-0.309-0.722c-0.103-0.413-0.309-0.826-0.619-1.032
		c-0.413-0.722-0.826-1.548-1.238-2.27c-1.445-2.786-2.889-5.674-5.778-7.016c-0.103,0-0.103-0.103-0.206-0.103h-0.103
		c-0.619,0.103-1.135,0.619-1.341,1.032c-0.103,0.413,0,0.928,0,1.341c0,0.516,0,1.032-0.103,1.445
		c-0.516-0.516-1.032-1.238-1.548-1.857c-0.516-0.619-0.928-1.238-1.548-1.857c-0.826-0.928-2.064-2.167-3.508-2.064h-0.103
		c-0.722,0.309-0.826,1.032-0.826,1.651c0,0.103,0,0.206,0,0.206l-0.103-0.103c-0.413-0.309-0.826-0.619-1.238-0.516
		c-0.103,0-0.206,0.103-0.309,0.103c-0.619,0.309-0.619,1.032-0.516,1.445c0,0.103,0,0.309,0.103,0.413c0,0.103,0,0.206,0.103,0.309
		v0.205c0.619,1.857,1.135,3.921,1.651,5.778c0.516,1.96,1.032,3.921,1.651,5.881c0.413,0.619,0.722,1.238,1.445,1.445
		c0.103,0.103,0.309,0.206,0.516,0.206h0.103c0.309,0,0.619-0.206,0.826-0.516v-0.103v-0.103c-0.103-0.928-0.103-1.96-0.206-2.889
		c-0.103-1.651-0.206-3.405-0.413-5.055c-0.103-0.722-0.206-1.754-0.516-2.682v-0.103c0-0.309,0-0.619,0.103-0.825
		c0.928,0.928,1.651,1.96,2.373,2.992c0.516,0.722,1.032,1.445,1.548,2.064c0.103,0.206,0.309,0.413,0.413,0.619
		c0.619,0.826,1.238,1.754,2.373,1.754h0.103h0.103c0.516-0.309,0.516-0.826,0.516-1.238c0-0.103,0-0.206,0-0.309l0,0l0,0
		c-0.206-1.238-0.103-2.373,0-2.786l0.103-0.516c1.238,1.651,2.167,3.611,3.095,5.365l0.413,0.826
		C149.087,38.254,149.603,38.873,150.326,38.873z"/>
	<path d="M124.119,21.436l1.135,4.024c1.341,4.643,3.508,12.587,3.714,14.032c0,0.103,0.309,1.548,1.135,2.579
		c0.103,0.206,0.309,0.309,0.516,0.309h0.103c0.309,0,0.826-0.309,1.135-0.619c0.206-0.206,0.206-0.413,0.206-0.619
		c0-0.103,0.103-0.722,0.103-0.722l0,0l0,0c-0.103-0.413-0.206-0.826-0.309-1.135c-0.206-0.722-0.309-1.238-0.413-2.476
		c-0.619-2.27-1.341-4.952-2.064-7.532c-0.516-1.96-1.032-3.921-1.548-5.674c-0.206-0.516-0.309-1.135-0.413-1.651l-0.206-1.651
		c-0.206-1.238-0.413-2.167-0.928-2.992c-0.206-0.722-1.341-0.825-1.857-0.825h-0.103c-0.103,0-0.206,0.103-0.309,0.206
		c-0.413,0.516-0.309,2.064-0.206,3.301C123.809,20.405,123.913,20.921,124.119,21.436z"/>
	<path d="M151.873,30c0.309,2.27,0.826,4.54,1.238,6.706c0.206,0.928,0.309,1.754,0.516,2.682c0.413,1.754,0.825,3.714,1.754,5.159
		c0.413,0.619,0.825,0.826,1.135,0.826h0.103c0.206,0,0.413-0.103,0.619-0.309c0.309-0.309,0.309-0.619,0.206-0.826
		c0-0.103-0.103-0.309-0.103-0.413c0-0.103,0-0.103,0-0.103c-0.206-1.238-0.516-2.373-0.825-3.508
		c-0.206-0.722-0.413-1.445-0.516-2.27l0.103-0.206c1.135-0.206,2.167-0.619,3.095-1.032c0.619-0.309,1.341-0.619,2.064-0.826h0.103
		c0.516-0.309,1.032-0.516,1.548-0.826c1.651-0.722,3.508-1.651,3.921-3.921c0-0.206,0-0.413,0-0.619
		c0-0.309-0.206-0.619-0.309-0.928c-0.103-0.206-0.206-0.413-0.206-0.722v-0.103c-0.103-0.103-0.206-0.309-0.309-0.516
		c-0.309-0.516-0.516-0.928-0.826-1.238c-3.095-2.373-6.087-3.405-8.77-3.095c-0.826,0.103-1.548,0.309-2.27,0.722h-0.103
		c-0.103,0.103-0.206,0.206-0.206,0.206c-0.206,0.206-0.309,0.309-0.516,0.413c-0.413,0.309-0.516,0.928-0.413,1.651l0,0l0,0
		c-0.516,0.103-1.135,0.619-1.135,1.135c0,0.309,0.103,0.619,0.103,0.928C151.77,29.381,151.77,29.691,151.873,30z M154.349,28.762
		c0.103,0,0.206,0,0.309,0c0.413-0.103,0.722-0.309,1.135-0.619c0.309-0.206,0.619-0.516,0.928-0.516h0.103
		c1.754-0.206,3.508,0.103,5.365,1.032c0.619,0.516,1.135,0.928,1.238,1.548c-1.548,1.445-3.611,2.167-5.675,2.889
		c-0.825,0.309-1.754,0.619-2.579,1.032l-0.516-3.405C154.659,30,154.555,29.381,154.349,28.762z"/>
	<path d="M184.992,28.865c0.103,0.516,0.206,1.032,0.309,1.651c0.309,1.857,0.722,3.921,2.579,4.54l0,0h0.103
		c0.619-0.103,0.722-0.928,0.722-1.341l0,0l0,0c-0.103-0.413-0.206-0.722-0.206-1.135c-0.309-1.445-0.722-2.992-0.928-4.54
		c-0.206-1.754-0.309-3.199-0.103-4.436c1.548-2.889,3.508-4.54,5.778-4.849l0.619-0.103c1.341-0.206,2.373-0.825,2.373-1.651l0,0
		l0,0c-0.103-0.619-0.413-0.825-0.722-0.928c-0.928-0.516-1.548-0.619-2.579-0.722h-0.206c-0.309,0-0.722,0-1.032,0.103
		c-2.167,0.309-4.23,1.651-6.191,4.23c-0.103,0.309-0.206,0.309-0.206,0.309c-0.103,0-0.206-0.309-0.309-0.413
		c-0.206-0.309-0.516-0.722-0.825-0.722c-0.206-0.103-0.309-0.103-0.516,0c-0.413,0.103-0.722,0.309-0.825,0.722v0.103
		c0,0.825,0.103,1.754,0.206,2.579C183.651,24.325,184.373,26.595,184.992,28.865z"/>
	<path d="M210.889,26.182c0.103,0.825,0.413,1.548,0.722,2.27c0.722,1.238,1.754,1.857,3.301,1.857l0,0c0.309,0,0.619,0,1.032-0.103
		c0,0,0.413-0.103,0.826-0.206c0.309-0.103,0.619-0.103,0.722-0.103c0.413-0.103,0.722-0.206,1.135-0.309
		c2.682-0.722,4.746-1.341,6.809-3.611c0.103-0.103,0.206-0.206,0.309-0.413c0.413-0.413,0.825-0.928,0.722-1.651
		c0-0.103-0.103-0.309-0.103-0.413l-0.103-0.206l-1.96,0.619c-1.032,0.309-2.064,0.722-2.992,1.032
		c-1.651,0.619-3.405,1.341-5.159,1.548c-0.516,0.103-1.135,0.103-1.754,0.103c-0.309-0.103-0.516-0.309-0.619-0.516v-0.206
		c-0.103-0.619,0.103-1.651,0.413-2.27l0.206,0.413c0.206,0.516,0.825,0.516,1.032,0.516c0.103,0,0.309,0,0.413,0
		c0.103,0,0.309,0,0.413,0l0,0l0,0c1.857-0.413,2.786-1.135,3.921-1.96c0.619-0.413,1.135-0.826,1.96-1.341
		c0.103,0,0.103-0.103,0.309-0.206c1.135-0.825,2.27-1.754,2.579-2.373c0-0.206,0.103-0.309,0.103-0.413
		c0.103-0.309,0.206-0.619,0.103-1.135c-0.206-1.341-0.825-2.27-1.445-3.095l0,0c-0.619-0.413-1.238-0.722-2.064-0.722
		c-0.309,0-0.619,0-0.928,0.103c-1.857,0.206-3.611,1.548-4.849,2.579c-0.413,0.516-0.826,0.928-1.238,1.341
		c-0.619,0.516-1.135,1.032-1.651,1.96C211.818,20.818,210.476,23.397,210.889,26.182z M215.841,21.127l0.103-0.103
		c0.413-0.722,1.032-1.548,1.341-1.857c1.135-1.238,2.682-2.064,4.127-2.27c0.103,0,0.206,0,0.309,0c0.206,0,0.309,0,0.516,0
		c-0.516,0.825-0.928,1.135-1.341,1.548c-0.103,0.103-0.206,0.206-0.309,0.309C219.246,19.682,217.699,20.508,215.841,21.127z"/>
	<path d="M168.484,34.54c0.722,1.238,1.754,1.857,3.301,1.857l0,0c0.309,0,0.722,0,1.032-0.103c0,0,0.413-0.103,0.825-0.206
		c0.309-0.103,0.619-0.103,0.722-0.206c0.413-0.103,0.722-0.206,1.135-0.309c2.682-0.722,4.746-1.341,6.809-3.611
		c0.103-0.103,0.206-0.206,0.309-0.413c0.309-0.413,0.826-0.928,0.722-1.651c0-0.103-0.103-0.309-0.103-0.413l-0.103-0.206
		l-1.96,0.619c-1.032,0.309-2.064,0.722-2.992,1.032c-1.651,0.619-3.405,1.341-5.159,1.548c-0.516,0.103-1.135,0.103-1.754,0.103
		c-0.309-0.103-0.516-0.309-0.619-0.516v-0.206c-0.103-0.619,0.103-1.651,0.413-2.27L171.27,30c0.206,0.516,0.825,0.516,1.032,0.516
		c0.103,0,0.309,0,0.413,0c0.103,0,0.309,0,0.413,0l0,0l0,0c1.857-0.413,2.786-1.135,3.921-1.96c0.619-0.413,1.135-0.825,1.96-1.341
		c0.103,0,0.103-0.103,0.309-0.206c1.135-0.825,2.27-1.754,2.579-2.373c0-0.206,0.103-0.309,0.103-0.413
		c0.103-0.309,0.206-0.619,0.103-1.135c-0.206-1.341-0.825-2.27-1.445-3.095l0,0c-0.619-0.413-1.238-0.722-2.064-0.722
		c-0.309,0-0.619,0-0.928,0.103c-1.857,0.206-3.611,1.548-4.849,2.579c-0.413,0.516-0.825,0.928-1.238,1.341
		c-0.619,0.516-1.135,1.032-1.651,1.96c-1.032,1.651-2.373,4.23-1.96,7.016C167.865,32.992,168.072,33.818,168.484,34.54z
		 M172.611,27.214l0.103-0.103c0.413-0.722,1.032-1.548,1.341-1.857c1.135-1.238,2.682-2.064,4.127-2.27c0.103,0,0.206,0,0.309,0
		c0.206,0,0.309,0,0.516,0c-0.516,0.825-0.928,1.135-1.341,1.548c-0.103,0.103-0.206,0.206-0.309,0.309
		C176.119,25.77,174.572,26.492,172.611,27.214z"/>
	<path d="M195.516,23.191c-0.206,0.309-0.206,0.825-0.206,1.341c0,0.206,0.103,0.413,0.206,0.619
		c0.206,0.825,0.619,1.445,1.238,1.651h0.103h0.103c0.928-0.206,1.651-0.722,2.373-1.341c0.309-0.206,0.516-0.413,0.825-0.619
		c0.206-0.103,0.516-0.206,0.722-0.413c0.206-0.206,0.413-0.309,0.619-0.309c0.103,0,0.206,0,0.206,0.103
		c0.413,0.825,0.619,1.857,0.722,2.889c0.206,1.032,0.309,2.064,0.722,2.889v0.103c0.103,0.103,0.103,0.206,0.206,0.309
		c0.309,0.413,0.826,1.032,1.238,1.032h0.103c0.103,0,0.206,0,0.206-0.103c0.722-0.309,0.722-0.825,0.722-1.238
		c0-0.309-0.103-0.619-0.206-0.928l-0.206-0.619c-0.103-0.413-0.206-0.722-0.309-1.135c0-0.309-0.103-0.516-0.103-0.825
		c0-0.31,0-0.619-0.103-0.928c-0.103-0.516-0.206-0.928-0.309-1.341v-0.103c0-0.309-0.103-0.516-0.206-0.722
		c-0.103-0.206-0.103-0.413-0.206-0.516c0-0.103,0-0.206,0-0.309c0.413-0.309,0.928-0.413,1.445-0.619
		c0.619-0.206,1.238-0.516,1.857-0.928c0,0,2.889-2.373,2.786-3.199c0-0.206-0.206-0.309-0.516-0.309c0,0-0.103,0-0.206,0
		c-0.516,0.103-1.032,0.206-1.651,0.413c-1.651,0.413-3.301,0.722-4.952,1.238l-0.103-0.103c-0.103-0.516-0.309-1.032-0.413-1.445
		c-0.619-1.96-1.238-4.024-1.548-6.191l-0.103-0.413c0.516-0.826,1.032-1.341,1.651-1.754c1.032-0.619,2.27-1.032,3.611-1.135
		c1.857-0.309,4.024-0.103,5.984,0.413h0.103l0,0c0.206,0,0.619-0.206,0.516-0.826c0-0.206-0.103-0.516-0.206-0.619V7.097
		c0-0.103,0-0.103,0-0.206c-0.103-0.413-0.206-1.238-1.238-1.651c-1.238-0.619-2.682-0.826-4.54-0.826c-0.516,0-1.032,0-1.857,0.103
		c-2.476,0.516-5.468,1.445-6.913,4.54v0.103c0,0.928,0.103,1.754,0.206,2.476c0.309,1.857,0.826,3.611,1.341,5.365
		c0.309,1.135,0.722,2.27,0.928,3.405l-0.103,0.206l-2.889,1.856c-0.206,0.206-0.516,0.206-0.722,0.309
		C196.238,22.572,195.826,22.674,195.516,23.191z"/>
</g>
</svg>
