<?xml version="1.0" encoding="iso-8859-1"?>
<!-- Generator: Adobe Illustrator 21.1.0, SVG Export Plug-In . SVG Version: 6.00 Build 0)  -->
<svg version="1.1" id="Layer_1" xmlns="http://www.w3.org/2000/svg" xmlns:xlink="http://www.w3.org/1999/xlink" x="0px" y="0px"
	 viewBox="0 0 480 120" style="enable-background:new 0 0 480 120;" xml:space="preserve">
<g>
	<g>
		<path style="fill:#3AB5E8;" d="M472.45,87.561c1.922,0.078,3.385,1.703,3.303,3.619c-0.074,1.95-1.676,3.429-3.608,3.358
			c-1.918-0.088-3.419-1.691-3.337-3.642c0.08-1.916,1.707-3.413,3.621-3.335L472.45,87.561L472.45,87.561z M472.391,88.253
			c-1.453-0.057-2.684,1.147-2.747,2.693c-0.059,1.562,1.059,2.827,2.533,2.893c1.47,0.076,2.714-1.114,2.771-2.676
			c0.061-1.552-1.078-2.846-2.547-2.909h-0.011V88.253z M471.608,93.039l-0.827-0.034l0.156-3.867
			c0.312-0.032,0.657-0.08,1.25-0.055c0.659,0.027,1.055,0.15,1.31,0.362c0.21,0.179,0.326,0.446,0.307,0.85
			c-0.021,0.459-0.36,0.771-0.779,0.863l-0.002,0.034c0.335,0.076,0.541,0.394,0.581,0.968c0.051,0.61,0.118,0.844,0.179,0.971
			l-0.853-0.038c-0.086-0.139-0.129-0.484-0.19-1.013c-0.038-0.421-0.284-0.598-0.703-0.615l-0.37-0.017L471.608,93.039z
			 M471.692,90.809l0.392,0.021c0.476,0.017,0.855-0.126,0.869-0.524c0.017-0.322-0.208-0.583-0.764-0.606
			c-0.204-0.006-0.341-0.015-0.446-0.002L471.692,90.809z"/>
	</g>
	<g>
		<path style="fill:#3AB5E8;" d="M463.248,85.356c-18.552,18.547-44.941,22.246-58.929,8.248c-14.006-14-10.31-40.396,8.236-58.952
			c18.556-18.558,44.958-22.251,58.952-8.251C485.509,40.398,481.814,66.799,463.248,85.356z"/>
	</g>
	<path style="fill:#FFFFFF;" d="M455.793,91.742h-37.371c-1.625,0-3.055-1.042-3.566-2.59c-0.495-1.541,0.046-3.23,1.354-4.194
		l11.474-8.354c2.385-1.739,5.954-0.118,5.954,3.027c0,1.162-0.531,2.303-1.539,3.038c0,0-1.499,1.091-2.168,1.573
		c7.731,0,13.221,0,20.754,0c-10.973-8.421-33.223-25.503-33.223-25.503c-0.834-0.648-1.467-1.619-1.467-3.114
		c0-1.928,1.745-3.611,3.589-3.611h42.038c2.021,0,3.676,1.716,3.676,3.747c0,1.349-0.697,2.318-1.377,2.888l-11.006,9.164
		c-1.6,1.328-3.954,1.109-5.286-0.49c-0.587-0.691-0.861-1.547-0.861-2.385c0-1.082,0.455-2.147,1.349-2.891
		c0,0,1.83-1.524,3.044-2.535c-7.609,0-12.448,0-20.375,0c9.945,7.629,29.493,22.531,33.044,25.251
		C462.548,86.325,457.709,90.687,455.793,91.742z M419.742,41.18h41.811c2.067,0,3.745,1.676,3.745,3.758
		c0,2.067-1.678,3.737-3.745,3.737h-41.811c-2.072,0-3.747-1.672-3.747-3.737C415.995,42.859,417.67,41.18,419.742,41.18z"/>
	<path style="fill:#FFFFFF;" d="M449.713,32.097l6.406-4.206c1.747-1.145,4.095-0.661,5.24,1.093
		c1.149,1.739,0.667,4.086-1.088,5.236l-6.409,4.196c-1.743,1.149-4.088,0.661-5.24-1.086
		C447.471,35.586,447.967,33.238,449.713,32.097z"/>
	<g>
		<path style="fill:#E03127;" d="M151.577,71.632h8.455c3.229,0.025,8.122,0.08,11.499,2.362c2.743,1.874,3.798,4.697,3.798,7.509
			c0,1.733-0.345,3.021-0.676,3.87c-2.45,6.208-9.849,6.316-12.63,6.352h-10.442V71.632H151.577z M158.262,75.868v11.811h2.034
			c3.53-0.055,8.411-0.198,8.411-5.977c0-1.394-0.185-2.785-1.389-4.044c-1.811-1.823-4.366-1.79-6.389-1.79H158.262z"/>
		<path style="fill:#E03127;" d="M179.068,71.641h13.082c6.924,0,9.65,3.013,9.65,6.417c0,4.04-3.646,5.135-5.444,5.65l6.122,8.025
			h-7.33l-5.261-7.166h-4.171v7.166h-6.65V71.641H179.068z M185.716,75.392v5.446h5.484c0.941-0.04,3.989-0.09,3.989-2.76
			c0-2.57-2.446-2.653-3.832-2.686L185.716,75.392L185.716,75.392z"/>
		<path style="fill:#E03127;" d="M329.378,71.641h13.08c6.928,0,9.653,3.013,9.653,6.417c0,4.04-3.638,5.135-5.442,5.65l6.116,8.025
			h-7.324l-5.263-7.166h-4.168v7.166h-6.653V71.641z M336.034,75.392v5.446h5.49c0.931-0.04,3.981-0.09,3.981-2.76
			c0-2.57-2.444-2.653-3.83-2.686L336.034,75.392L336.034,75.392z"/>
		<path style="fill:#E03127;" d="M227.879,71.632v11.217c-0.038,1.933-0.078,3.867-1.545,5.69c-2.853,3.465-8.756,3.644-9.878,3.644
			c-1.996,0-4.366-0.37-6.169-1.09c-5.103-1.989-5.103-5.512-5.072-8.244V71.632h6.691v12.52c0,1.027,0.034,1.878,0.49,2.507
			c0.83,1.048,2.629,1.36,4.284,1.36c4.505,0,4.505-2.331,4.545-3.897V71.63h6.655V71.632z"/>
		<path style="fill:#E03127;" d="M251.213,89.849c-1.082,0.768-3.335,2.333-7.8,2.333c-7.396,0-11.949-4.558-11.949-10.478
			c0-6.459,5.528-10.764,13.074-10.764c7.021,0,10.434,3.427,11.672,4.644l-5.029,2.31c-0.945-1.082-2.486-2.851-6.156-2.851
			c-5.034,0-6.952,3.164-6.952,6.518c0,2.284,0.829,4.13,2.11,5.128c1.013,0.825,2.815,1.45,4.842,1.45
			c1.194,0,2.545-0.225,3.638-0.768c1.726-0.848,1.949-1.939,2.131-2.994h-5.924v-3.808h11.535v11.16h-5.194L251.213,89.849
			L251.213,89.849z"/>
		<path style="fill:#E03127;" d="M298.18,71.632v20.095h-6.354l0.413-14.324l0.067-2.017l-0.215,0.71
			c-0.347,1.139-0.377,1.284-0.68,2.139l-5,13.491h-5.707l-4.81-12.926l-1.162-3.583c0.116,1.592,0.116,1.928,0.221,3.838
			l0.339,12.67h-6.343V71.632h9.617l4.055,11.261l0.945,3.223c0.364-1.394,0.41-1.537,0.707-2.482l4.248-12.004h9.659V71.632z"/>
		<path style="fill:#E03127;" d="M317.209,71.632l9.771,20.095h-7.065l-1.32-3.217h-9.766l-1.32,3.217h-7.057l9.844-20.095H317.209z
			 M313.628,76.407c-0.333,1.027-0.71,2.08-1.086,3.099c-0.562,1.509-1.573,3.872-2.175,5.381h6.731L313.628,76.407z"/>
		<path style="fill:#E03127;" d="M352.965,71.632h22.722v3.985h-8.025v16.131h-6.659V75.617h-8.038V71.632z"/>
	</g>
	<path style="fill:#E03127;" d="M49.75,27.325h14.507V40.19h13.857V27.325H92.76v35.339H78.112V49.053H64.255v13.611H49.75V27.325z"
		/>
	<path style="fill:#E03127;" d="M146.828,44.653c0,8.95-6.83,19.164-24.851,19.164c-18.809,0-24.467-10.71-24.467-18.771
		c0-10.109,8.13-19.023,24.72-19.023C140.39,26.021,146.828,36.24,146.828,44.653z M112.082,44.994
		c0,6.158,3.251,9.857,10.149,9.857c5.859,0,9.956-3.549,9.956-10.198c0-1.709-0.187-3.261-0.84-4.665
		c-2.217-4.909-7.806-5.051-9.116-5.051C117.028,34.935,112.082,37.689,112.082,44.994z"/>
	<path style="fill:#E03127;" d="M151.569,27.325h26.278c5.015,0.143,9.375,0.299,13.086,3.25c3.379,2.758,3.84,6.008,3.84,8.263
		c0,2.949-0.781,6.156-4.368,9.009c-3.834,3.053-8.07,3.21-13.074,3.305h-11.19v11.512h-14.569V27.325H151.569z M166.139,34.733
		v9.008h8.337c0.781-0.05,1.619-0.05,2.4-0.246c2.213-0.549,3.512-2.15,3.512-4.301c0-4.152-4.227-4.36-6.053-4.459h-8.196V34.733z"
		/>
	<path style="fill:#E03127;" d="M198.83,27.325h26.286c5.015,0.143,9.373,0.299,13.074,3.25c3.396,2.758,3.848,6.008,3.848,8.263
		c0,2.949-0.775,6.156-4.358,9.009c-3.84,3.053-8.07,3.21-13.082,3.305h-11.19v11.512h-14.579V27.325H198.83z M213.411,34.733v9.008
		h8.326c0.781-0.05,1.627-0.05,2.411-0.246c2.213-0.549,3.51-2.15,3.51-4.301c0-4.152-4.229-4.36-6.051-4.459h-8.196V34.733z"/>
	<path style="fill:#E03127;" d="M246.081,27.325h36.348v7.754h-21.779v5.259h20.343v7.659h-20.343v7.006h23.731v7.659h-38.301
		L246.081,27.325L246.081,27.325z"/>
	<path style="fill:#E03127;" d="M288.973,27.325h22.901c4.362,0,8.52,0.152,11.324,1.053c6.118,2.002,7.931,6.811,7.931,10.204
		c0,5.196-3.45,8.194-9.43,9.819l11.198,14.263h-16.141l-8.92-12.463h-4.291v12.463h-14.573V27.325H288.973z M303.548,34.681v8.263
		h6.059c2.404,0,7.023-0.105,7.023-4.109c0-4.051-4.564-4.156-7.097-4.156h-5.985V34.681z"/>
	<path style="fill:#E03127;" d="M343.03,50.445c2.71,3.96,8.945,4.659,13.128,4.659c2.465,0,6.594-0.554,6.594-2.653
		c0-1.103-0.829-1.89-2.857-2.217c-1.53-0.246-9.402-1.556-11.655-1.933c-8.023-1.347-12.509-4.975-12.509-10.314
		c0-7.394,8.349-11.815,20.31-11.815c8.592,0,16.229,2.118,20.632,6.259l-9.114,5.859c-2.23-2.581-7.23-3.608-12.032-3.608
		c-2.482,0-5.211,0.509-5.211,2.299c0,1.707,2.358,2.061,6.314,2.709c10.19,1.684,20.368,2.75,20.368,11.512
		c0,7.185-7.63,12.52-21.672,12.52c-9.486,0-17.53-1.878-23.429-7.766L343.03,50.445z"/>
	<path style="fill:#E03127;" d="M11.129,50.445c2.71,3.96,8.937,4.659,13.128,4.659c2.465,0,6.587-0.554,6.587-2.653
		c0-1.103-0.829-1.89-2.848-2.217c-1.53-0.246-9.394-1.556-11.655-1.933C8.316,46.954,3.83,43.325,3.83,37.986
		c0-7.394,8.347-11.815,20.312-11.815c8.579,0,16.223,2.118,20.63,6.259l-9.112,5.859c-2.232-2.581-7.238-3.608-12.032-3.608
		c-2.48,0-5.213,0.509-5.213,2.299c0,1.707,2.364,2.061,6.316,2.709c10.189,1.684,20.364,2.75,20.364,11.512
		c0,7.185-7.63,12.52-21.67,12.52c-9.484,0-17.528-1.878-23.425-7.766L11.129,50.445z"/>
</g>
</svg>
